#!OML:ASF F:\twosubjects\two\Thursday\Session 1\justin.ASF
:FULLY-SPECIFIED
:DEGREES
480
root 9.43018 17.2918 -19.7912 -2.50893 -74.0931 9.68117
lowerback -2.55344 3.01556 -2.65033
upperback -2.72094 4.04283 1.7371
thorax -1.67839 2.07697 3.30055
lowerneck -15.3861 13.5112 1.56361
upperneck 18.9224 19.2995 -4.56802
head 9.0616 8.65341 0.644109
rclavicle 9.0944e-015 1.35174e-014
rhumerus -37.5717 -15.6039 -75.0874
rradius 29.1994
rwrist -5.62467
rhand -16.037 9.17058
rfingers 7.12502
rthumb 10.1645 -20.5639
lclavicle 9.0944e-015 1.35174e-014
lhumerus -30.9089 4.61724 87.7799
lradius 29.5812
lwrist -12.5005
lhand 1.03961 41.3038
lfingers 7.12502
lthumb 26.5858 69.4577
rfemur -13.6792 -3.29482 23.4714
rtibia 37.8461
rfoot -28.4205 -18.2672
rtoes -7.24941
lfemur -14.6725 3.25999 -22.1682
ltibia 29.9436
lfoot -20.8168 -14.8673
ltoes 3.17975
481
root 9.43202 17.2913 -19.7854 -2.61062 -73.933 9.89389
lowerback -2.67632 3.09228 -2.74835
upperback -2.77222 4.14794 1.73427
thorax -1.67803 2.13175 3.35793
lowerneck -15.1349 13.4642 1.63929
upperneck 18.8271 19.2275 -4.66036
head 9.00025 8.62773 0.573987
rclavicle 4.07509e-015 2.38542e-014
rhumerus -37.756 -15.2614 -75.1571
rradius 29.4209
rwrist -6.40847
rhand -16.2929 9.57656
rfingers 7.12502
rthumb 9.91761 -20.1698
lclavicle 4.07509e-015 2.38542e-014
lhumerus -30.8365 4.42928 87.8858
lradius 29.4355
lwrist -12.2454
lhand 1.40683 41.4291
lfingers 7.12502
lthumb 26.9372 69.5292
rfemur -13.8131 -3.43358 23.3844
rtibia 37.8616
rfoot -28.1936 -18.5835
rtoes -7.86187
lfemur -14.78 3.0369 -22.2862
ltibia 29.9514
lfoot -20.8239 -14.7459
ltoes 2.90759
482
root 9.43245 17.2889 -19.7807 -2.79822 -73.7116 10.1401
lowerback -2.89899 3.12125 -2.73052
upperback -2.69328 4.19093 1.62841
thorax -1.46591 2.1476 3.25557
lowerneck -15.0189 13.4865 1.70998
upperneck 18.7283 19.2082 -4.55647
head 8.94007 8.64512 0.58168
rclavicle 1.77415e-014 1.66979e-014
rhumerus -37.6975 -15.2521 -75.3612
rradius 29.4907
rwrist -7.02182
rhand -16.0584 10.0724
rfingers 7.12502
rthumb 10.1438 -19.663
lclavicle 1.77415e-014 1.66979e-014
lhumerus -30.5286 4.26656 87.8297
lradius 29.2564
lwrist -11.7989
lhand 1.46455 41.5784
lfingers 7.12502
lthumb 26.9924 69.67
rfemur -13.8614 -3.43635 23.2944
rtibia 37.9058
rfoot -28.1337 -19.008
rtoes -8.066
lfemur -14.8097 2.93657 -22.4078
ltibia 29.9145
lfoot -20.7047 -14.8211
ltoes 2.61792
483
root 9.42818 17.2892 -19.7776 -2.97733 -73.3962 10.3004
lowerback -3.09174 3.19345 -2.71069
upperback -2.5798 4.29195 1.49199
thorax -1.23671 2.19186 3.12115
lowerneck -15.0513 13.4491 1.77928
upperneck 18.6904 19.0879 -4.34043
head 8.91122 8.62035 0.623829
rclavicle 8.86517e-014 1.98785e-014
rhumerus -37.6114 -15.9062 -75.24
rradius 29.3685
rwrist -6.4986
rhand -15.7773 9.53822
rfingers 7.12502
rthumb 10.415 -20.1838
lclavicle 8.86517e-014 1.98785e-014
lhumerus -30.2748 3.83996 87.9283
lradius 29.1929
lwrist -11.5027
lhand 1.39401 41.7184
lfingers 7.12502
lthumb 26.9249 69.8204
rfemur -13.7953 -3.44319 23.2001
rtibia 37.9628
rfoot -28.4554 -19.0217
rtoes -7.07214
lfemur -14.7579 2.87466 -22.4941
ltibia 29.8589
lfoot -20.7266 -15.0965
ltoes 2.42141
484
root 9.42254 17.2923 -19.7784 -3.22352 -73.1315 10.5206
lowerback -3.15986 3.3563 -2.7314
upperback -2.5657 4.51099 1.3173
thorax -1.1878 2.2994 2.96031
lowerneck -15.0343 13.3227 1.96703
upperneck 18.7923 18.841 -4.1761
head 8.93588 8.53256 0.620346
rclavicle 2.44195e-014 -8.74653e-015
rhumerus -37.6314 -16.6498 -75.1483
rradius 29.2748
rwrist -6.25318
rhand -16.0408 8.49814
rfingers 7.12502
rthumb 10.1608 -21.2365
lclavicle 2.44195e-014 -8.74653e-015
lhumerus -30.2405 2.72405 88.2331
lradius 29.1104
lwrist -10.8445
lhand 0.875454 42.0247
lfingers 7.12502
lthumb 26.4286 70.2023
rfemur -13.6943 -3.58018 23.0837
rtibia 37.9708
rfoot -28.7649 -18.782
rtoes -5.96695
lfemur -14.7112 2.74765 -22.5869
ltibia 29.8512
lfoot -20.8809 -15.1859
ltoes 2.65444
485
root 9.42399 17.2942 -19.7771 -2.85876 -72.9184 10.0912
lowerback -3.11761 3.43025 -2.57934
upperback -2.55138 4.60571 1.29943
thorax -1.18951 2.34423 2.85624
lowerneck -15.1621 13.3125 2.19717
upperneck 19.093 18.8074 -4.20376
head 9.08699 8.51082 0.599588
rclavicle 4.74288e-014 1.51076e-014
rhumerus -37.415 -16.9441 -75.2048
rradius 29.0671
rwrist -6.76374
rhand -15.1737 8.49397
rfingers 7.12502
rthumb 10.9972 -21.198
lclavicle 4.74288e-014 1.51076e-014
lhumerus -30.2852 2.47728 88.385
lradius 29.0627
lwrist -10.7194
lhand 0.305699 42.2911
lfingers 7.12502
lthumb 25.8831 70.5494
rfemur -13.5849 -3.80505 23.1886
rtibia 37.905
rfoot -28.763 -18.6927
rtoes -5.9877
lfemur -14.7249 2.6428 -22.4745
ltibia 29.9184
lfoot -20.8461 -15.3486
ltoes 3.63901
486
root 9.43113 17.2926 -19.7684 -1.64841 -72.598 8.64413
lowerback -2.89942 3.4185 -2.04144
upperback -2.50401 4.57636 1.41961
thorax -1.22685 2.32235 2.66795
lowerneck -15.4068 13.3302 2.27144
upperneck 19.4786 18.847 -4.19181
head 9.27171 8.50941 0.632952
rclavicle 5.9946e-014 -4.77083e-015
rhumerus -37.3262 -17.025 -75.1431
rradius 29.0055
rwrist -6.7628
rhand -14.4133 9.04617
rfingers 7.12502
rthumb 11.7306 -20.6054
lclavicle 5.9946e-014 -4.77083e-015
lhumerus -30.3378 3.10486 88.3359
lradius 29.1224
lwrist -11.3301
lhand 0.580254 42.065
lfingers 7.12502
lthumb 26.146 70.2848
rfemur -13.3438 -4.05933 23.5982
rtibia 37.7826
rfoot -28.6773 -18.7432
rtoes -5.91771
lfemur -14.6543 2.36693 -22.0541
ltibia 30.0544
lfoot -20.7069 -15.4954
ltoes 4.13718
487
root 9.43582 17.2893 -19.7578 -0.246313 -72.2056 7.02992
lowerback -2.75263 3.41385 -1.35722
upperback -2.49476 4.55558 1.50254
thorax -1.24994 2.30171 2.3639
lowerneck -15.3952 13.271 2.22888
upperneck 19.6021 18.7675 -4.11492
head 9.29747 8.47305 0.655562
rclavicle 2.19098e-014 -5.56597e-015
rhumerus -37.4284 -17.1519 -75.0883
rradius 29.0962
rwrist -6.33988
rhand -14.5884 9.07579
rfingers 7.12502
rthumb 11.5617 -20.5853
lclavicle 2.19098e-014 -5.56597e-015
lhumerus -30.3441 3.38132 88.2525
lradius 28.9461
lwrist -11.5247
lhand 0.945556 41.1285
lfingers 7.12502
lthumb 26.4957 69.2959
rfemur -13.1252 -4.39085 24.0797
rtibia 37.628
rfoot -28.6153 -18.8352
rtoes -5.77935
lfemur -14.6394 2.23894 -21.5792
ltibia 30.2351
lfoot -20.8246 -15.6224
ltoes 3.08883
488
root 9.43655 17.2883 -19.7529 0.542725 -71.8864 6.24027
lowerback -2.85117 3.50333 -1.0088
upperback -2.49958 4.66779 1.46969
thorax -1.17453 2.35116 2.14499
lowerneck -15.32 13.1843 2.36573
upperneck 19.5632 18.6198 -4.15119
head 9.28329 8.41428 0.59916
rclavicle 4.31798e-014 1.43125e-014
rhumerus -37.4061 -17.6643 -75.0073
rradius 28.9543
rwrist -5.97769
rhand -14.3723 8.95999
rfingers 7.12502
rthumb 11.7701 -20.6893
lclavicle 4.31798e-014 1.43125e-014
lhumerus -30.2211 2.95792 88.3228
lradius 28.4436
lwrist -11.0246
lhand -0.151927 39.9543
lfingers 7.12502
lthumb 25.4448 68.2759
rfemur -13.0707 -4.62546 24.3341
rtibia 37.4826
rfoot -28.6363 -18.833
rtoes -5.48686
lfemur -14.8108 2.43015 -21.3361
ltibia 30.4047
lfoot -21.0944 -16.0386
ltoes 2.38303
